<svg width="112" height="28" fill="none" xmlns="http://www.w3.org/2000/svg"><rect x="66" y="2" width="43" height="20" rx="10" fill="#fff"/><path d="M80.29 11.53a2.06 2.06 0 0 0 1.07-1.94c0-1.45-1.02-2.59-3.05-2.59h-3.1v10h2.99c2.27 0 3.42-1.27 3.42-2.9 0-.98-.42-1.72-1.33-2.18v-.4Zm-2.16-.42h-1.41V8.4h1.41c1.25 0 1.7.5 1.7 1.35 0 .84-.45 1.35-1.7 1.35Zm0 4.49h-1.41v-3.1h1.41c1.43 0 1.96.58 1.96 1.56 0 .97-.53 1.54-1.96 1.54ZM85.1 10.73 83.46 7H81.9l2.76 6.28V17h1.5v-3.72L88.9 7h-1.54l-1.64 3.73h-.64Z" fill="#8F8F8F"/><g clip-path="url(#a)"><path d="M98 18a5.9 5.9 0 0 1-4.23-1.74 5.95 5.95 0 0 1 0-8.5A6.1 6.1 0 0 1 98 6a5.8 5.8 0 0 1 4.22 1.77A6 6 0 0 1 98.01 18Zm.66-3.91c-.06 0-.08-.04-.08-.1 0-.14.06-.22.17-.22.08 0 .12.02.12.09 0 .05-.02.1-.06.16a.2.2 0 0 1-.15.07Zm1.28 1.93c.06 0 .1-.04.15-.12l.14-.28.12-.27c.06-.12.12-.23.15-.33.04-.1.06-.18.06-.24 0-.05-.02-.07-.05-.07-.03 0-.07.03-.12.1-.05.07-.1.14-.17.21-.07.08-.15.14-.23.2-.07.05-.11.09-.11.13a8.67 8.67 0 0 1-.01.55c0 .08.02.12.07.12Zm-1.93.83c.13 0 .22-.02.28-.04a.84.84 0 0 0 .37-.3.51.51 0 0 1 .1-.11c.14-.11.23-.2.29-.28a.55.55 0 0 0 .08-.33c0-.06.04-.12.12-.2l.24-.21c.08-.08.12-.15.12-.2a7.07 7.07 0 0 0-.02-.53v-.34c0-.18.05-.33.16-.47.1-.14.23-.28.36-.42.14-.13.27-.28.38-.45a1.08 1.08 0 0 0 .14-.74c0-.04-.03-.06-.06-.06-.05 0-.13.04-.24.12a.74.74 0 0 1-.44.12c-.07 0-.11-.03-.12-.08a.4.4 0 0 0-.09-.17.49.49 0 0 0-.17-.13.7.7 0 0 1-.17-.12c-.02-.02-.03-.05-.04-.09a.22.22 0 0 0-.05-.12.17.17 0 0 0-.08-.05.2.2 0 0 1-.08-.07.47.47 0 0 1-.06-.18.49.49 0 0 0-.08-.23c-.02-.03-.05-.04-.09-.04-.04 0-.06-.02-.07-.04a.2.2 0 0 1-.02-.1l-.01-.09c-.05-.1-.09-.19-.13-.24l-.05-.12c0-.04.01-.05.04-.05s.05.01.07.04l.08.1.06.06.06.07.03.07c0 .03.02.05.04.08l.08.07.08.08c.03.05.05.09.05.12 0 .04.05.1.12.2.08.1.14.16.18.17.05.02.11.09.19.2.04.07.08.16.1.27.04.1.09.15.15.15.04 0 .08 0 .1-.03a4.68 4.68 0 0 1 .37-.18.64.64 0 0 0 .27-.21.43.43 0 0 1 .21-.17l.1-.06a.95.95 0 0 0 .19-.58c0-.06-.03-.1-.08-.14a6.72 6.72 0 0 0-.32-.24c-.06 0-.1.04-.12.1-.02.08-.07.12-.14.12-.06 0-.14-.05-.25-.15a.33.33 0 0 1-.06-.08.25.25 0 0 0-.05-.09.83.83 0 0 0-.15-.12c-.05-.04-.08-.08-.08-.13s.03-.08.09-.08c.08 0 .15.05.21.14.06.1.15.15.26.15.05 0 .1-.02.12-.05.03-.04.08-.06.14-.06.07 0 .12.03.13.1.02.06.08.1.18.1.14 0 .24-.02.3-.05a.44.44 0 0 1 .2-.05c.06 0 .12.04.19.13l.22.24c.08.09.16.13.24.13.02.07.06.16.12.27a8.36 8.36 0 0 1 .31.6c.04.09.08.13.13.13.06 0 .09-.04.1-.12l.01-.54-.01-.66.01-.74c-.17-.42-.42-.81-.73-1.18a5.72 5.72 0 0 0-3.5-1.94.17.17 0 0 0-.06.05l-.01.05c0 .04.02.06.06.07h.13c.04 0 .06.01.06.05 0 .06-.06.1-.17.14a1 1 0 0 1-.25.05c-.06 0-.13-.04-.2-.13a.36.36 0 0 0-.3-.15.86.86 0 0 0-.45.14c-.15.09-.29.2-.4.31a.55.55 0 0 1-.2.12.86.86 0 0 0-.2.1c-.06.05-.09.1-.09.18 0 .05.01.08.03.1.02.02.05.02.08.02s.05 0 .08-.03l.06-.04c.02 0 .03.04.04.1 0 .08.05.11.12.11.04 0 .08-.01.1-.04a1.43 1.43 0 0 1 .17-.16c.03-.03.05-.05.05-.07v-.06l-.01-.07c0-.03.03-.07.09-.15.06-.07.11-.1.15-.1.04 0 .06 0 .06.03 0 .04-.02.08-.06.14-.04.05-.07.09-.07.12l.03.01c.03 0 .08 0 .13-.03a.46.46 0 0 1 .16-.03c.06 0 .08.02.08.07 0 .04-.03.07-.1.09a.92.92 0 0 1-.24.03.53.53 0 0 0-.12.12.44.44 0 0 1-.12.08.5.5 0 0 0-.11.08 1.1 1.1 0 0 1-.1.1.2.2 0 0 1-.12.03c-.06 0-.1-.01-.12-.04a.7.7 0 0 0-.06-.09c-.02-.02-.07-.04-.15-.04-.03 0-.06.02-.06.05-.01.03-.04.05-.08.08a.31.31 0 0 1-.11.04.23.23 0 0 0-.12.05l-.2.17c-.04.06-.1.08-.15.08h-.07a.18.18 0 0 0-.05-.02.14.14 0 0 0-.08.03 2.1 2.1 0 0 1-.14.1c-.02.02-.03.05-.03.08s0 .05.02.07l.1.1-.07.12a.4.4 0 0 1-.07 0h-.08a1.11 1.11 0 0 1-.26-.02c-.05 0-.12.1-.2.32a.45.45 0 0 1-.05.1.18.18 0 0 0-.04.1c0 .08.03.14.08.2.05.05.09.08.12.08.11 0 .22-.04.33-.11a.3.3 0 0 0 .1-.13c.02-.06.06-.1.1-.13l.2-.14c.06-.05.09-.09.1-.13.14 0 .23-.03.29-.1.05-.07.09-.1.12-.1l.05.08.08.16.1.1.1.08.12.12c.04.04.07.05.1.05.02 0 .04 0 .05-.04v-.1c0-.03-.04-.1-.12-.18a.38.38 0 0 1-.14-.28c0-.03.01-.07.03-.1l.05.06a1.08 1.08 0 0 0 .24.18c.05.02.08.05.09.1l.1.24c.06.08.09.15.1.22 0 .04.02.07.05.1.02.03.04.04.06.04.02 0 .05 0 .08-.03a.12.12 0 0 0 .06-.1c0-.04-.01-.07-.03-.1-.02-.02-.03-.06-.03-.14 0-.05.02-.08.06-.09a.7.7 0 0 1 .18-.02c.05 0 .1 0 .13-.02a.1.1 0 0 0 .05-.09c0-.1.04-.18.1-.27.07-.09.14-.13.22-.13l.09.03c.03.03.06.04.1.04a.3.3 0 0 0 .12-.04c.06-.03.1-.05.14-.05.05 0 .1.03.15.08a1 1 0 0 0 .16.12c.04.02.08.04.11.04s.05.01.05.02c0 .05-.05.1-.15.14-.1.04-.2.05-.31.05a.17.17 0 0 1-.1-.03.16.16 0 0 0-.11-.04c-.05 0-.1 0-.13.02a.9.9 0 0 1-.13.04c-.1.03-.2.06-.28.1-.09.04-.13.1-.13.15 0 .05.03.12.08.2.05.07.13.1.24.1l.06-.01.07-.02c.02-.01.04-.01.07 0h.07c.05 0 .1-.03.13-.06.04-.04.07-.06.11-.06.02 0 .03.03.04.07l.01.14c0 .18 0 .3-.02.35-.02.06-.06.08-.12.08-.07 0-.1.02-.1.07-.01.03-.05.05-.1.05-.15 0-.32-.03-.5-.09a1.5 1.5 0 0 0-.52-.1c-.09 0-.14.02-.16.06a.6.6 0 0 0-.05.1c0 .03-.03.05-.08.05a.36.36 0 0 1-.22-.09 1.57 1.57 0 0 0-.23-.16.57.57 0 0 0-.16-.04c-.06-.02-.1-.04-.1-.07 0-.03.01-.06.03-.08a.14.14 0 0 0 .03-.08c0-.04-.03-.08-.08-.1a.33.33 0 0 0-.17-.05c-.05 0-.13 0-.25.02a2 2 0 0 1-.24.02.24.24 0 0 0-.19.09c-.05.05-.1.08-.16.08h-.18c-.07-.02-.13-.02-.2-.02-.08 0-.16.04-.24.13a.54.54 0 0 0-.15.26.38.38 0 0 1-.1.2.66.66 0 0 1-.22.12l-.09.12a1.04 1.04 0 0 1-.21.32c-.04.03-.06.07-.06.14 0 .24-.04.45-.1.62-.07.17-.1.35-.1.54 0 .17.05.29.18.33.03.01.08.08.14.19l.22.31c.09.1.17.15.24.15.04 0 .07 0 .1-.03.04-.03.07-.04.1-.04.04 0 .08.02.11.07s.1.08.17.08c.09 0 .18-.03.26-.09.1-.06.17-.09.23-.09.05 0 .08.02.11.06l.1.12c.04.04.1.06.2.06.16 0 .25.06.25.2l-.01.14v.16c0 .13.04.24.14.34.1.09.19.2.3.33.1.12.16.3.18.55a.55.55 0 0 0-.1.13.46.46 0 0 0-.05.24c0 .04.03.11.1.2a6.24 6.24 0 0 0 .4.49l.14.18.11.09a.4.4 0 0 1 .12.1c.1.1.18.18.28.22.1.04.22.07.4.07ZM96.2 9.46c.03 0 .06-.02.07-.07a.4.4 0 0 0 .04-.17c0-.07-.02-.1-.05-.1-.08 0-.12.07-.12.2 0 .1.02.14.06.14Zm-.33-1.17c.06 0 .1-.03.12-.08a.84.84 0 0 0 .03-.45c0-.03-.03-.05-.06-.05-.08 0-.11.08-.11.22a.1.1 0 0 1-.04.08c-.03.02-.08.03-.16.03-.05 0-.1.02-.15.05a.14.14 0 0 0-.07.13c0 .03.03.05.08.06l.36.01Zm2.52 1.59c.06 0 .09-.03.09-.08s-.03-.07-.1-.07c-.05 0-.08.02-.08.07s.03.08.09.08Zm-3.02-2.34c.04 0 .1-.01.15-.04.06-.03.12-.06.2-.08a13.8 13.8 0 0 0 .75-.3c.2-.09.37-.15.54-.2.17-.04.26-.09.26-.13 0-.04-.04-.06-.11-.07a2.98 2.98 0 0 1-.5-.05l-.93.31c-.11.08-.22.17-.31.28-.1.1-.15.18-.15.23 0 .04.04.05.1.05Zm4.68 1.96c-.13 0-.21-.03-.27-.08a.53.53 0 0 1-.1-.2.9.9 0 0 0-.1-.23.22.22 0 0 0-.16-.12c-.07-.01-.1-.07-.1-.16 0-.07.01-.13.05-.17.04-.05.09-.07.14-.07.04 0 .07.01.1.04s.04.06.04.1l-.01.06v.04c0 .04.04.09.14.16l.3.24c.1.09.14.18.14.27 0 .04 0 .07-.03.1l-.14.02Z" fill="#8F8F8F"/></g><path d="M55.6 10.22c.67-1.16 2.44-3.13 5.5-1.57 2.04 1.02 2.65 3.27 1.56 5.25-1.77 3.34-7.2 11.44-7.2 11.44a4.65 4.65 0 0 1-3.88 2.05c-1.5 0-2.92-.82-3.8-2.39-.48-.82-2.65-4.77-2.65-4.77h-.07c-1.09 1.5-6.05 7.3-12.5 7.3a9.26 9.26 0 0 1-6.94-2.87C24.6 25.21 19.03 28 12.64 28 6.66 28 0 24.92 0 17.97c0-7.9 8.77-8.77 12.17-7.82l-.14-6.88c0-1.84 1.7-3.27 3.87-3.27 2.25 0 4.08 1.43 4.08 3.27l-.07 10.83c0 1.98-1.97 3.27-3.73 3.27a6.45 6.45 0 0 1-3.54-1.3c-1.5-.47-4.08.08-4.08 2.53 0 1.36 1.16 2.66 3.4 2.66 3.67 0 7.95-1.78 10.94-4.77 0-1.37 1.1-8.72 7.14-8.72 3.26 0 5.57 2.18 5.57 5.51 0 3.41-2.72 6.34-4.21 7.36v.07c4.08 0 8.22-5.31 9.72-8.52.07-.4.54-2.72 2.85-3.27 1.3-.27 3-.13 4.08 1.78.61 1.15 3.2 6.8 3.2 6.8h.06s2.45-3.87 4.28-7.28ZM62.12 22a5.2 5.2 0 0 1 5.23-5.24A5.2 5.2 0 0 1 72.58 22a5.18 5.18 0 0 1-5.23 5.18A5.18 5.18 0 0 1 62.12 22Z" fill="#283CDC"/><defs><clipPath id="a"><path fill="#fff" transform="translate(92 6)" d="M0 0h12v12H0z"/></clipPath></defs></svg>
